<svg width="50" height="50" viewBox="0 0 50 50" fill="none" xmlns="http://www.w3.org/2000/svg">
<g clip-path="url(#clip0_9_49)">
<path d="M25 50C38.8071 50 50 38.8071 50 25C50 11.1929 38.8071 0 25 0C11.1929 0 0 11.1929 0 25C0 38.8071 11.1929 50 25 50Z" fill="#F49300"/>
<path d="M34.7315 32.2286L35.8389 25.0005H28.9059V20.3103C28.9059 18.3346 29.8728 16.4044 32.9804 16.4044H36.1315V10.2522C36.1315 10.2522 33.27 9.76352 30.5345 9.76352C24.8249 9.76352 21.0916 13.2228 21.0916 19.491V25.0005H14.7448V32.2286H21.0941V49.6979C22.3862 49.9005 23.6921 50.0017 25 50.0005C26.3078 49.9999 27.6136 49.8987 28.9059 49.6979V32.2286H34.7315Z" fill="white"/>
</g>
<defs>
<clipPath id="clip0_9_49">
<rect width="50" height="50" fill="white"/>
</clipPath>
</defs>
</svg>
