<svg width="50" height="50" viewBox="0 0 50 50" fill="none" xmlns="http://www.w3.org/2000/svg">
<path d="M49.2638 24.9305C49.2638 38.3749 38.3611 49.2777 24.9166 49.2777C11.4722 49.2777 0.569458 38.3749 0.569458 24.9305C0.569458 11.4861 11.4722 0.583328 24.9166 0.583328C38.3611 0.583328 49.2638 11.4861 49.2638 24.9305Z" fill="#F49300"/>
<path d="M22.875 8.7361C16.0139 9.47222 9.18055 14.75 8.90277 22.3056C8.72222 26.9167 10.6528 30.375 15.2639 31.3472C15.7917 29.1667 15.8889 27.9861 15.8889 27.9861C15.8889 27.9861 13.8611 26.0417 13.6528 24.8056C11.9583 14.8611 25.6945 8.06944 32.9028 15.0139C37.875 19.8333 34.5972 34.6528 26.5695 33.1111C18.875 31.6389 30.3333 19.8472 24.1945 17.5278C19.2083 15.6389 16.5556 23.2917 18.9167 27.0833C17.5278 33.6111 14.5417 39.7639 15.75 47.9445C19.6806 45.2361 21 40.0417 22.0833 34.625C24.0556 35.7639 25.1111 36.9583 27.625 37.1389C36.9028 37.8195 42.0834 28.3194 40.8195 19.5417C39.6806 11.7639 31.5417 7.80555 22.875 8.7361Z" fill="white"/>
</svg>
