<svg width="143" height="36" viewBox="0 0 143 36" fill="none" xmlns="http://www.w3.org/2000/svg">
<path d="M16.208 6.616C15.32 6.16 14.348 5.764 13.292 5.428C12.236 5.092 11.204 4.924 10.196 4.924C8.804 4.924 7.688 5.248 6.848 5.896C6.032 6.544 5.624 7.408 5.624 8.488C5.624 9.304 5.888 10 6.416 10.576C6.944 11.128 7.64 11.608 8.504 12.016C9.368 12.424 10.268 12.808 11.204 13.168C12.02 13.48 12.824 13.828 13.616 14.212C14.408 14.596 15.116 15.076 15.74 15.652C16.388 16.228 16.892 16.936 17.252 17.776C17.636 18.616 17.828 19.66 17.828 20.908C17.828 22.276 17.48 23.524 16.784 24.652C16.112 25.78 15.14 26.668 13.868 27.316C12.596 27.964 11.084 28.288 9.332 28.288C8.18 28.288 7.076 28.156 6.02 27.892C4.988 27.628 4.028 27.292 3.14 26.884C2.252 26.452 1.46 26.008 0.764 25.552L2.312 22.816C2.888 23.224 3.548 23.62 4.292 24.004C5.036 24.364 5.816 24.664 6.632 24.904C7.448 25.12 8.24 25.228 9.008 25.228C9.824 25.228 10.628 25.084 11.42 24.796C12.236 24.484 12.908 24.016 13.436 23.392C13.964 22.768 14.228 21.94 14.228 20.908C14.228 20.02 13.988 19.288 13.508 18.712C13.052 18.112 12.44 17.608 11.672 17.2C10.904 16.768 10.088 16.384 9.224 16.048C8.408 15.736 7.58 15.4 6.74 15.04C5.9 14.656 5.12 14.2 4.4 13.672C3.68 13.12 3.104 12.448 2.672 11.656C2.24 10.864 2.024 9.904 2.024 8.776C2.024 7.408 2.348 6.22 2.996 5.212C3.668 4.18 4.58 3.376 5.732 2.8C6.884 2.2 8.204 1.876 9.692 1.828C11.372 1.828 12.848 2.032 14.12 2.44C15.416 2.848 16.556 3.352 17.54 3.952L16.208 6.616ZM22.8691 13.096H26.2171V28H22.8691V13.096ZM22.6171 7.696C22.6171 7.168 22.8211 6.724 23.2291 6.364C23.6611 6.004 24.1291 5.824 24.6331 5.824C25.1371 5.824 25.5811 6.004 25.9651 6.364C26.3731 6.724 26.5771 7.168 26.5771 7.696C26.5771 8.248 26.3731 8.704 25.9651 9.064C25.5811 9.4 25.1371 9.568 24.6331 9.568C24.1291 9.568 23.6611 9.388 23.2291 9.028C22.8211 8.668 22.6171 8.224 22.6171 7.696ZM39.1738 35.38C38.0698 35.38 37.0978 35.248 36.2578 34.984C35.4178 34.744 34.6498 34.396 33.9538 33.94C33.2818 33.484 32.6338 32.968 32.0098 32.392L33.9538 30.124C34.7458 30.868 35.5498 31.444 36.3658 31.852C37.1818 32.26 38.0938 32.464 39.1018 32.464C40.2298 32.464 41.1778 32.272 41.9458 31.888C42.7378 31.528 43.3378 31.012 43.7458 30.34C44.1538 29.692 44.3578 28.936 44.3578 28.072L44.3938 24.04L44.6818 24.688C44.2498 25.72 43.4698 26.596 42.3418 27.316C41.2138 28.012 39.8458 28.36 38.2378 28.36C36.8698 28.36 35.6098 28.012 34.4578 27.316C33.3298 26.62 32.4178 25.684 31.7218 24.508C31.0498 23.308 30.7138 21.964 30.7138 20.476C30.7138 18.916 31.0738 17.548 31.7938 16.372C32.5138 15.172 33.4618 14.224 34.6378 13.528C35.8138 12.832 37.0978 12.484 38.4898 12.484C39.8098 12.484 41.0098 12.76 42.0898 13.312C43.1938 13.84 43.9978 14.524 44.5018 15.364L44.3218 15.976L44.6818 13.096H47.7418V28.108C47.7418 29.452 47.3938 30.676 46.6978 31.78C46.0018 32.884 45.0178 33.76 43.7458 34.408C42.4738 35.056 40.9498 35.38 39.1738 35.38ZM34.0618 20.404C34.0618 21.364 34.2898 22.24 34.7458 23.032C35.2018 23.824 35.8138 24.448 36.5818 24.904C37.3738 25.36 38.2498 25.588 39.2098 25.588C40.0978 25.588 40.8898 25.432 41.5858 25.12C42.3058 24.784 42.9058 24.34 43.3858 23.788C43.8658 23.212 44.2018 22.552 44.3938 21.808V18.856C44.1778 18.136 43.8178 17.512 43.3138 16.984C42.8098 16.432 42.2098 16.012 41.5138 15.724C40.8178 15.412 40.0498 15.256 39.2098 15.256C38.2498 15.256 37.3738 15.472 36.5818 15.904C35.8138 16.336 35.2018 16.948 34.7458 17.74C34.2898 18.508 34.0618 19.396 34.0618 20.404ZM59.7174 28.36C58.3254 28.36 57.0534 28.06 55.9014 27.46C54.7734 26.86 53.8734 25.984 53.2014 24.832C52.5534 23.656 52.2294 22.228 52.2294 20.548C52.2294 18.892 52.5774 17.464 53.2734 16.264C53.9694 15.04 54.8934 14.104 56.0454 13.456C57.2214 12.808 58.5054 12.484 59.8974 12.484C61.2894 12.484 62.4654 12.808 63.4254 13.456C64.3854 14.08 65.1174 14.824 65.6214 15.688L65.4054 16.264L65.7294 13.096H68.8254V28H65.4774V24.112L65.8374 24.976C65.7414 25.216 65.5254 25.528 65.1894 25.912C64.8774 26.272 64.4454 26.644 63.8934 27.028C63.3654 27.412 62.7534 27.736 62.0574 28C61.3614 28.24 60.5814 28.36 59.7174 28.36ZM60.6174 25.588C61.4574 25.588 62.2134 25.432 62.8854 25.12C63.5574 24.808 64.1094 24.376 64.5414 23.824C64.9974 23.248 65.3094 22.564 65.4774 21.772V18.856C65.2854 18.136 64.9494 17.512 64.4694 16.984C63.9894 16.432 63.4134 16.012 62.7414 15.724C62.0694 15.412 61.3254 15.256 60.5094 15.256C59.6214 15.256 58.8054 15.472 58.0614 15.904C57.3174 16.336 56.7174 16.936 56.2614 17.704C55.8294 18.472 55.6134 19.372 55.6134 20.404C55.6134 21.364 55.8414 22.24 56.2974 23.032C56.7534 23.824 57.3654 24.448 58.1334 24.904C58.9014 25.36 59.7294 25.588 60.6174 25.588ZM73.6111 18.784H80.3431V21.736H73.6111V18.784ZM88.5407 13.096L88.8287 16.732L88.6847 16.156C89.1647 15.052 89.9447 14.176 91.0247 13.528C92.1047 12.856 93.3527 12.52 94.7687 12.52C96.1847 12.52 97.3367 12.94 98.2247 13.78C99.1367 14.596 99.6047 15.664 99.6287 16.984V28H96.2447V18.172C96.2207 17.356 95.9807 16.696 95.5247 16.192C95.0927 15.664 94.4087 15.4 93.4727 15.4C92.6087 15.4 91.8287 15.64 91.1327 16.12C90.4367 16.6 89.8847 17.26 89.4767 18.1C89.0927 18.94 88.9007 19.912 88.9007 21.016V28H85.5527V13.096H88.5407ZM104.155 20.404C104.155 18.916 104.503 17.572 105.199 16.372C105.919 15.172 106.903 14.224 108.151 13.528C109.399 12.832 110.815 12.484 112.399 12.484C114.031 12.484 115.459 12.832 116.683 13.528C117.907 14.224 118.855 15.172 119.527 16.372C120.199 17.572 120.535 18.916 120.535 20.404C120.535 21.892 120.199 23.248 119.527 24.472C118.855 25.672 117.895 26.62 116.647 27.316C115.423 28.012 113.995 28.36 112.363 28.36C110.779 28.36 109.363 28.036 108.115 27.388C106.891 26.716 105.919 25.792 105.199 24.616C104.503 23.416 104.155 22.012 104.155 20.404ZM107.503 20.44C107.503 21.4 107.719 22.276 108.151 23.068C108.583 23.836 109.159 24.448 109.879 24.904C110.623 25.36 111.439 25.588 112.327 25.588C113.263 25.588 114.091 25.36 114.811 24.904C115.555 24.448 116.131 23.836 116.539 23.068C116.947 22.276 117.151 21.4 117.151 20.44C117.151 19.48 116.947 18.616 116.539 17.848C116.131 17.056 115.555 16.432 114.811 15.976C114.091 15.496 113.263 15.256 112.327 15.256C111.415 15.256 110.587 15.496 109.843 15.976C109.123 16.456 108.547 17.092 108.115 17.884C107.707 18.652 107.503 19.504 107.503 20.44ZM129.244 28.288C128.188 28.288 127.156 28.108 126.148 27.748C125.164 27.364 124.348 26.8 123.7 26.056L125.104 24.112C125.728 24.712 126.364 25.168 127.012 25.48C127.684 25.768 128.344 25.912 128.992 25.912C129.472 25.912 129.916 25.852 130.324 25.732C130.732 25.612 131.056 25.42 131.296 25.156C131.56 24.868 131.692 24.484 131.692 24.004C131.692 23.476 131.512 23.056 131.152 22.744C130.816 22.432 130.372 22.18 129.82 21.988C129.292 21.796 128.728 21.616 128.128 21.448C126.904 21.04 125.968 20.476 125.32 19.756C124.672 19.036 124.348 18.16 124.348 17.128C124.348 16.336 124.54 15.604 124.924 14.932C125.332 14.236 125.92 13.672 126.688 13.24C127.48 12.808 128.452 12.592 129.604 12.592C130.636 12.592 131.56 12.724 132.376 12.988C133.192 13.228 133.96 13.636 134.68 14.212L133.348 16.3C132.916 15.844 132.4 15.508 131.8 15.292C131.2 15.076 130.66 14.956 130.18 14.932C129.772 14.908 129.376 14.968 128.992 15.112C128.632 15.256 128.332 15.46 128.092 15.724C127.852 15.988 127.732 16.3 127.732 16.66C127.732 17.164 127.9 17.572 128.236 17.884C128.572 18.196 129.004 18.448 129.532 18.64C130.084 18.808 130.624 18.988 131.152 19.18C131.896 19.396 132.556 19.684 133.132 20.044C133.708 20.404 134.164 20.848 134.5 21.376C134.86 21.904 135.04 22.564 135.04 23.356C135.04 24.244 134.824 25.072 134.392 25.84C133.984 26.584 133.348 27.184 132.484 27.64C131.644 28.072 130.564 28.288 129.244 28.288ZM138.865 0.675998H141.889V21.268H138.865V0.675998ZM140.485 27.856C139.861 27.856 139.345 27.676 138.937 27.316C138.529 26.956 138.325 26.5 138.325 25.948C138.325 25.396 138.529 24.94 138.937 24.58C139.345 24.196 139.861 24.004 140.485 24.004C141.085 24.004 141.577 24.196 141.961 24.58C142.369 24.94 142.573 25.396 142.573 25.948C142.573 26.5 142.369 26.956 141.961 27.316C141.577 27.676 141.085 27.856 140.485 27.856Z" fill="#F49300"/>
<path d="M16.208 6.616L15.7512 7.50557L16.6504 7.96731L17.1024 7.06321L16.208 6.616ZM6.848 5.896L6.23714 5.10414L6.22612 5.11289L6.848 5.896ZM6.416 10.576L5.67885 11.2517L5.68602 11.2596L5.69336 11.2672L6.416 10.576ZM8.504 12.016L8.93101 11.1118V11.1117L8.504 12.016ZM11.204 13.168L10.845 14.1013L10.8469 14.1021L11.204 13.168ZM15.74 15.652L15.0617 16.3868L15.0686 16.3932L15.0756 16.3994L15.74 15.652ZM17.252 17.776L16.3329 18.1699L16.3376 18.1809L16.3425 18.1918L17.252 17.776ZM16.784 24.652L15.933 24.1269L15.9289 24.1335L15.9249 24.1402L16.784 24.652ZM13.868 27.316L14.3219 28.207L13.868 27.316ZM6.02 27.892L5.77216 28.8608L5.77746 28.8621L6.02 27.892ZM3.14 26.884L2.70253 27.7832L2.71247 27.7881L2.7225 27.7927L3.14 26.884ZM0.764 25.552L-0.106349 25.0596L-0.567718 25.875L0.215974 26.3885L0.764 25.552ZM2.312 22.816L2.89002 22L1.98674 21.3602L1.44165 22.3236L2.312 22.816ZM4.292 24.004L3.83336 24.8926L3.84482 24.8985L3.85644 24.9042L4.292 24.004ZM6.632 24.904L6.34983 25.8634L6.36292 25.8672L6.37611 25.8707L6.632 24.904ZM11.42 24.796L11.7617 25.7358L11.7695 25.733L11.7771 25.7301L11.42 24.796ZM13.436 23.392L14.1994 24.0379L14.1994 24.0379L13.436 23.392ZM13.508 18.712L12.7118 19.3171L12.7254 19.3349L12.7398 19.3522L13.508 18.712ZM11.672 17.2L11.1817 18.0716L11.1922 18.0775L11.2028 18.0831L11.672 17.2ZM9.224 16.048L9.58645 15.116L9.58114 15.1139L9.224 16.048ZM6.74 15.04L6.32424 15.9495L6.3351 15.9544L6.34608 15.9591L6.74 15.04ZM4.4 13.672L3.79157 14.4656L3.80003 14.4721L3.80864 14.4784L4.4 13.672ZM2.996 5.212L2.15799 4.66632L2.15482 4.67124L2.996 5.212ZM5.732 2.8L6.17921 3.69443L6.1866 3.69073L6.19393 3.68691L5.732 2.8ZM9.692 1.828V0.827998H9.67588L9.65976 0.828518L9.692 1.828ZM14.12 2.44L13.8146 3.39223L13.8197 3.39385L14.12 2.44ZM17.54 3.952L18.4344 4.39921L18.8456 3.57686L18.0606 3.0982L17.54 3.952ZM16.6648 5.72643C15.7224 5.2425 14.6984 4.82608 13.5952 4.47507L12.9888 6.38092C13.9976 6.70191 14.9176 7.0775 15.7512 7.50557L16.6648 5.72643ZM13.5952 4.47507C12.4508 4.11095 11.3166 3.924 10.196 3.924V5.924C11.0914 5.924 12.0212 6.07304 12.9888 6.38092L13.5952 4.47507ZM10.196 3.924C8.6521 3.924 7.3 4.28434 6.2372 5.10422L7.4588 6.68778C8.076 6.21166 8.9559 5.924 10.196 5.924V3.924ZM6.22612 5.11289C5.1613 5.95848 4.624 7.11587 4.624 8.488H6.624C6.624 7.70013 6.9027 7.12952 7.46988 6.67911L6.22612 5.11289ZM4.624 8.488C4.624 9.542 4.97372 10.4825 5.67885 11.2517L7.15315 9.90027C6.80228 9.5175 6.624 9.066 6.624 8.488H4.624ZM5.69336 11.2672C6.3243 11.9268 7.12896 12.4726 8.07699 12.9202L8.93101 11.1117C8.15104 10.7434 7.5637 10.3292 7.13864 9.88478L5.69336 11.2672ZM8.07699 12.9202C8.96437 13.3393 9.88712 13.7329 10.845 14.1013L11.563 12.2347C10.6489 11.8831 9.77163 11.5087 8.93101 11.1118L8.07699 12.9202ZM10.8469 14.1021C11.6358 14.4037 12.4134 14.7403 13.1797 15.1118L14.0523 13.3122C13.2346 12.9157 12.4042 12.5563 11.5611 12.2339L10.8469 14.1021ZM13.1797 15.1118C13.8866 15.4546 14.5125 15.8798 15.0617 16.3868L16.4183 14.9172C15.7195 14.2722 14.9294 13.7374 14.0523 13.3122L13.1797 15.1118ZM15.0756 16.3994C15.6078 16.8725 16.0276 17.4576 16.3329 18.1699L18.1711 17.3821C17.7564 16.4144 17.1682 15.5835 16.4044 14.9046L15.0756 16.3994ZM16.3425 18.1918C16.6498 18.8639 16.828 19.7558 16.828 20.908H18.828C18.828 19.5642 18.6222 18.3681 18.1615 17.3602L16.3425 18.1918ZM16.828 20.908C16.828 22.0968 16.5283 23.162 15.933 24.1269L17.635 25.1771C18.4317 23.886 18.828 22.4552 18.828 20.908H16.828ZM15.9249 24.1402C15.3579 25.092 14.5332 25.8548 13.4141 26.425L14.3219 28.207C15.7468 27.4811 16.8661 26.468 17.6431 25.1638L15.9249 24.1402ZM13.4141 26.425C12.3111 26.9869 10.9615 27.288 9.332 27.288V29.288C11.2065 29.288 12.8809 28.9411 14.3219 28.207L13.4141 26.425ZM9.332 27.288C8.25701 27.288 7.23473 27.1649 6.26254 26.9219L5.77746 28.8621C6.91727 29.1471 8.10299 29.288 9.332 29.288V27.288ZM6.26783 26.9232C5.28892 26.6728 4.38623 26.3561 3.5575 25.9753L2.7225 27.7927C3.66977 28.2279 4.68708 28.5832 5.77217 28.8608L6.26783 26.9232ZM3.57747 25.9848C2.7208 25.568 1.96672 25.1445 1.31203 24.7155L0.215974 26.3885C0.953279 26.8715 1.7832 27.336 2.70253 27.7832L3.57747 25.9848ZM1.63435 26.0444L3.18235 23.3084L1.44165 22.3236L-0.106349 25.0596L1.63435 26.0444ZM1.73398 23.632C2.35426 24.0714 3.05531 24.491 3.83336 24.8926L4.75064 23.1154C4.04069 22.749 3.42174 22.3766 2.89002 22L1.73398 23.632ZM3.85644 24.9042C4.65127 25.2888 5.48269 25.6083 6.34983 25.8634L6.91417 23.9446C6.14931 23.7197 5.42073 23.4392 4.72756 23.1038L3.85644 24.9042ZM6.37611 25.8707C7.26744 26.1066 8.14556 26.228 9.008 26.228V24.228C8.33444 24.228 7.62856 24.1334 6.88789 23.9373L6.37611 25.8707ZM9.008 26.228C9.94437 26.228 10.8639 26.0623 11.7617 25.7358L11.0783 23.8562C10.3921 24.1057 9.70363 24.228 9.008 24.228V26.228ZM11.7771 25.7301C12.7395 25.3621 13.555 24.7995 14.1994 24.0379L12.6726 22.7461C12.261 23.2325 11.7325 23.6059 11.0629 23.8619L11.7771 25.7301ZM14.1994 24.0379C14.9169 23.19 15.228 22.1127 15.228 20.908H13.228C13.228 21.7673 13.0111 22.346 12.6726 22.7461L14.1994 24.0379ZM15.228 20.908C15.228 19.8312 14.9325 18.8594 14.2762 18.0718L12.7398 19.3522C13.0435 19.7166 13.228 20.2088 13.228 20.908H15.228ZM14.3042 18.1069C13.7481 17.3752 13.0174 16.7824 12.1412 16.3169L11.2028 18.0831C11.8626 18.4336 12.3559 18.8488 12.7118 19.3171L14.3042 18.1069ZM12.1623 16.3284C11.3511 15.8721 10.4922 15.4682 9.58645 15.116L8.86155 16.98C9.68385 17.2998 10.4569 17.6639 11.1817 18.0716L12.1623 16.3284ZM9.58114 15.1139C8.77805 14.8069 7.96231 14.4759 7.13392 14.1209L6.34608 15.9591C7.19769 16.3241 8.03795 16.6651 8.86686 16.9821L9.58114 15.1139ZM7.15576 14.1305C6.37552 13.7738 5.65463 13.352 4.99136 12.8656L3.80864 14.4784C4.58537 15.048 5.42448 15.5382 6.32424 15.9495L7.15576 14.1305ZM5.00843 12.8784C4.3986 12.4109 3.91465 11.8459 3.5499 11.1771L1.7941 12.1349C2.29335 13.0501 2.9614 13.8291 3.79157 14.4656L5.00843 12.8784ZM3.5499 11.1771C3.21566 10.5644 3.024 9.77787 3.024 8.776H1.024C1.024 10.0301 1.26434 11.1636 1.7941 12.1349L3.5499 11.1771ZM3.024 8.776C3.024 7.57188 3.30698 6.57751 3.83718 5.75276L2.15482 4.67124C1.38902 5.86248 1.024 7.24412 1.024 8.776H3.024ZM3.834 5.75767C4.4045 4.88154 5.17855 4.19476 6.17921 3.69443L5.28479 1.90557C3.98145 2.55724 2.9315 3.47846 2.158 4.66633L3.834 5.75767ZM6.19393 3.68691C7.19478 3.16564 8.36417 2.87135 9.72424 2.82748L9.65976 0.828518C8.04383 0.880646 6.57322 1.23436 5.27007 1.91308L6.19393 3.68691ZM9.692 2.828C11.2938 2.828 12.6629 3.02282 13.8146 3.39221L14.4254 1.48778C13.0331 1.04118 11.4502 0.827998 9.692 0.827998V2.828ZM13.8197 3.39385C15.0518 3.78174 16.1155 4.25465 17.0194 4.80579L18.0606 3.0982C16.9965 2.44935 15.7802 1.91426 14.4203 1.48615L13.8197 3.39385ZM16.6456 3.50478L15.3136 6.16879L17.1024 7.06321L18.4344 4.39921L16.6456 3.50478ZM22.8691 13.096V12.096H21.8691V13.096H22.8691ZM26.2171 13.096H27.2171V12.096H26.2171V13.096ZM26.2171 28V29H27.2171V28H26.2171ZM22.8691 28H21.8691V29H22.8691V28ZM23.2291 6.364L22.5889 5.59578L22.5781 5.60482L22.5675 5.61416L23.2291 6.364ZM25.9651 6.364L25.2812 7.09354L25.2922 7.10386L25.3035 7.11384L25.9651 6.364ZM25.9651 9.064L26.6236 9.81658L26.6267 9.81384L25.9651 9.064ZM23.2291 9.028L22.5675 9.77784L22.5781 9.78718L22.5889 9.79622L23.2291 9.028ZM22.8691 14.096H26.2171V12.096H22.8691V14.096ZM25.2171 13.096V28H27.2171V13.096H25.2171ZM26.2171 27H22.8691V29H26.2171V27ZM23.8691 28V13.096H21.8691V28H23.8691ZM23.6171 7.696C23.6171 7.46476 23.6904 7.29062 23.8907 7.11384L22.5675 5.61416C21.9519 6.15738 21.6171 6.87123 21.6171 7.696H23.6171ZM23.8693 7.13222C24.1438 6.90351 24.3904 6.824 24.6331 6.824V4.824C23.8679 4.824 23.1785 5.10448 22.5889 5.59578L23.8693 7.13222ZM24.6331 6.824C24.8709 6.824 25.0735 6.89879 25.2812 7.09354L26.6491 5.63446C26.0888 5.10921 25.4034 4.824 24.6331 4.824V6.824ZM25.3035 7.11384C25.5039 7.29062 25.5771 7.46476 25.5771 7.696H27.5771C27.5771 6.87123 27.2424 6.15738 26.6267 5.61416L25.3035 7.11384ZM25.5771 7.696C25.5771 7.96585 25.4928 8.14712 25.3035 8.31416L26.6267 9.81384C27.2534 9.26088 27.5771 8.53015 27.5771 7.696H25.5771ZM25.3066 8.31142C25.1024 8.4901 24.8916 8.568 24.6331 8.568V10.568C25.3826 10.568 26.0598 10.3099 26.6236 9.81658L25.3066 8.31142ZM24.6331 8.568C24.3904 8.568 24.1438 8.48848 23.8693 8.25978L22.5889 9.79622C23.1785 10.2875 23.8679 10.568 24.6331 10.568V8.568ZM23.8907 8.27816C23.6904 8.10137 23.6171 7.92723 23.6171 7.696H21.6171C21.6171 8.52076 21.9519 9.23462 22.5675 9.77784L23.8907 8.27816ZM36.2578 34.984L36.5576 34.03L36.5451 34.0261L36.5325 34.0225L36.2578 34.984ZM33.9538 33.94L33.3923 34.7675L33.3989 34.772L33.4057 34.7765L33.9538 33.94ZM32.0098 32.392L31.2505 31.7412L30.6232 32.473L31.3315 33.1268L32.0098 32.392ZM33.9538 30.124L34.6384 29.3952L33.8756 28.6786L33.1945 29.4732L33.9538 30.124ZM36.3657 31.852L35.9185 32.7464V32.7464L36.3657 31.852ZM41.9458 31.888L41.5319 30.9776L41.5151 30.9853L41.4985 30.9936L41.9458 31.888ZM43.7458 30.34L42.8995 29.8072L42.8952 29.8141L42.891 29.821L43.7458 30.34ZM44.3577 28.072L43.3577 28.0631V28.072H44.3577ZM44.3937 24.04L45.3076 23.6339L43.3938 24.0311L44.3937 24.04ZM44.6818 24.688L45.6042 25.0741L45.7708 24.6761L45.5956 24.2819L44.6818 24.688ZM42.3418 27.316L42.8669 28.167L42.8734 28.163L42.8798 28.1589L42.3418 27.316ZM34.4577 27.316L33.9326 28.1671L33.9406 28.1719L34.4577 27.316ZM31.7217 24.508L30.8492 24.9966L30.8551 25.007L30.8612 25.0173L31.7217 24.508ZM31.7938 16.372L32.6466 16.8942L32.6512 16.8865L31.7938 16.372ZM34.6377 13.528L35.1471 14.3886L34.6377 13.528ZM42.0898 13.312L41.6346 14.2024L41.6464 14.2084L41.6583 14.2141L42.0898 13.312ZM44.5018 15.364L45.4611 15.6462L45.5848 15.2255L45.3592 14.8495L44.5018 15.364ZM44.3218 15.976L43.3295 15.852L45.2811 16.2582L44.3218 15.976ZM44.6818 13.096V12.096H43.799L43.6895 12.972L44.6818 13.096ZM47.7417 13.096H48.7417V12.096H47.7417V13.096ZM46.6978 31.78L47.5437 32.3133H47.5437L46.6978 31.78ZM43.7458 34.408L43.2918 33.517L43.7458 34.408ZM34.7458 23.032L33.8791 23.531L34.7458 23.032ZM36.5817 24.904L36.0712 25.7639L36.0828 25.7706L36.5817 24.904ZM41.5858 25.12L41.9948 26.0325L42.0017 26.0294L42.0086 26.0262L41.5858 25.12ZM43.3857 23.788L44.1404 24.4442L44.1472 24.4363L44.154 24.4282L43.3857 23.788ZM44.3937 21.808L45.362 22.0579L45.3937 21.935V21.808H44.3937ZM44.3937 18.856H45.3937V18.7092L45.3516 18.5687L44.3937 18.856ZM43.3138 16.984L42.5753 17.6583L42.5827 17.6665L42.5904 17.6745L43.3138 16.984ZM41.5138 15.724L41.1047 16.6365L41.118 16.6425L41.1314 16.648L41.5138 15.724ZM36.5817 15.904L36.1029 15.026L36.0915 15.0324L36.5817 15.904ZM34.7458 17.74L35.6057 18.2506L35.6124 18.239L34.7458 17.74ZM39.1738 34.38C38.1468 34.38 37.2796 34.2569 36.5576 34.03L35.9579 35.938C36.9159 36.2391 37.9927 36.38 39.1738 36.38V34.38ZM36.5325 34.0225C35.7845 33.8088 35.1094 33.5016 34.5018 33.1035L33.4057 34.7765C34.1901 35.2904 35.051 35.6792 35.983 35.9455L36.5325 34.0225ZM34.5153 33.1125C33.8863 32.6857 33.2771 32.201 32.688 31.6572L31.3315 33.1268C31.9904 33.735 32.6772 34.2823 33.3923 34.7675L34.5153 33.1125ZM32.769 33.0428L34.713 30.7748L33.1945 29.4732L31.2505 31.7412L32.769 33.0428ZM33.2691 30.8528C34.1187 31.651 35.0011 32.2877 35.9185 32.7464L36.813 30.9576C36.0984 30.6003 35.3728 30.085 34.6384 29.3952L33.2691 30.8528ZM35.9185 32.7464C36.8874 33.2309 37.955 33.464 39.1017 33.464V31.464C38.2325 31.464 37.4761 31.2891 36.813 30.9576L35.9185 32.7464ZM39.1017 33.464C40.3382 33.464 41.4496 33.2541 42.393 32.7824L41.4985 30.9936C40.9059 31.2899 40.1213 31.464 39.1017 31.464V33.464ZM42.3596 32.7984C43.3142 32.3644 44.0772 31.7209 44.6005 30.859L42.891 29.821C42.5983 30.3031 42.1613 30.6916 41.5319 30.9776L42.3596 32.7984ZM44.592 30.8728C45.1129 30.0454 45.3577 29.0997 45.3577 28.072H43.3577C43.3577 28.7723 43.1946 29.3386 42.8995 29.8072L44.592 30.8728ZM45.3577 28.0809L45.3937 24.0489L43.3938 24.0311L43.3578 28.0631L45.3577 28.0809ZM43.4799 24.4461L43.7679 25.0941L45.5956 24.2819L45.3076 23.6339L43.4799 24.4461ZM43.7593 24.3019C43.4203 25.1116 42.7944 25.8407 41.8037 26.4731L42.8798 28.1589C44.1451 27.3513 45.0792 26.3284 45.6042 25.0741L43.7593 24.3019ZM41.8166 26.465C40.8771 27.0447 39.7 27.36 38.2378 27.36V29.36C39.9915 29.36 41.5504 28.9793 42.8669 28.167L41.8166 26.465ZM38.2378 27.36C37.0489 27.36 35.9682 27.0602 34.9749 26.4601L33.9406 28.1719C35.2513 28.9638 36.6906 29.36 38.2378 29.36V27.36ZM34.9829 26.465C33.9971 25.8567 33.1985 25.0398 32.5823 23.9987L30.8612 25.0173C31.637 26.3282 32.6624 27.3833 33.9326 28.167L34.9829 26.465ZM32.5943 24.0194C32.0126 22.9808 31.7137 21.8073 31.7137 20.476H29.7138C29.7138 22.1207 30.0869 23.6352 30.8492 24.9966L32.5943 24.0194ZM31.7137 20.476C31.7137 19.0755 32.035 17.8931 32.6466 16.8942L30.9409 15.8498C30.1125 17.2029 29.7138 18.7565 29.7138 20.476H31.7137ZM32.6512 16.8865C33.2879 15.8254 34.1176 14.9978 35.1471 14.3886L34.1284 12.6674C32.8059 13.4502 31.7396 14.5186 30.9363 15.8575L32.6512 16.8865ZM35.1471 14.3886C36.1659 13.7856 37.2734 13.484 38.4897 13.484V11.484C36.9221 11.484 35.4616 11.8784 34.1284 12.6674L35.1471 14.3886ZM38.4897 13.484C39.6658 13.484 40.7077 13.7287 41.6346 14.2024L42.5449 12.4216C41.3118 11.7913 39.9537 11.484 38.4897 11.484V13.484ZM41.6583 14.2141C42.6295 14.6786 43.2637 15.2443 43.6443 15.8785L45.3592 14.8495C44.7318 13.8037 43.758 13.0014 42.5212 12.4099L41.6583 14.2141ZM43.5424 15.0818L43.3624 15.6938L45.2811 16.2582L45.4611 15.6462L43.5424 15.0818ZM45.314 16.1L45.674 13.22L43.6895 12.972L43.3295 15.852L45.314 16.1ZM44.6818 14.096H47.7417V12.096H44.6818V14.096ZM46.7417 13.096V28.108H48.7417V13.096H46.7417ZM46.7417 28.108C46.7417 29.2692 46.444 30.3073 45.8518 31.2467L47.5437 32.3133C48.3435 31.0447 48.7417 29.6348 48.7417 28.108H46.7417ZM45.8518 31.2467C45.2608 32.1842 44.4189 32.9428 43.2918 33.517L44.1997 35.299C45.6166 34.5772 46.7427 33.5838 47.5437 32.3133L45.8518 31.2467ZM43.2918 33.517C42.1906 34.078 40.8297 34.38 39.1738 34.38V36.38C41.0698 36.38 42.7569 36.034 44.1997 35.299L43.2918 33.517ZM33.0618 20.404C33.0618 21.5299 33.3313 22.5794 33.8791 23.531L35.6124 22.533C35.2482 21.9006 35.0618 21.1981 35.0618 20.404H33.0618ZM33.8791 23.531C34.4188 24.4682 35.1519 25.218 36.0712 25.7639L37.0923 24.0441C36.4756 23.678 35.9847 23.1798 35.6124 22.533L33.8791 23.531ZM36.0828 25.7706C37.0343 26.3185 38.0838 26.588 39.2098 26.588V24.588C38.4157 24.588 37.7132 24.4015 37.0807 24.0374L36.0828 25.7706ZM39.2098 26.588C40.2158 26.588 41.1507 26.4109 41.9948 26.0325L41.1767 24.2075C40.6288 24.4531 39.9797 24.588 39.2098 24.588V26.588ZM42.0086 26.0262C42.8444 25.6361 43.5608 25.1106 44.1404 24.4442L42.6311 23.1318C42.2507 23.5694 41.7671 23.9319 41.1629 24.2138L42.0086 26.0262ZM44.154 24.4282C44.7311 23.7356 45.134 22.9415 45.362 22.0579L43.4255 21.5581C43.2695 22.1625 43.0004 22.6884 42.6175 23.1478L44.154 24.4282ZM45.3937 21.808V18.856H43.3937V21.808H45.3937ZM45.3516 18.5687C45.0917 17.7023 44.6533 16.939 44.0371 16.2935L42.5904 17.6745C42.9822 18.085 43.2638 18.5697 43.4359 19.1433L45.3516 18.5687ZM44.0522 16.3097C43.4485 15.6485 42.7266 15.1436 41.8961 14.8L41.1314 16.648C41.6929 16.8804 42.171 17.2155 42.5753 17.6583L44.0522 16.3097ZM41.9228 14.8115C41.0856 14.4362 40.1763 14.256 39.2098 14.256V16.256C39.9232 16.256 40.5499 16.3878 41.1047 16.6365L41.9228 14.8115ZM39.2098 14.256C38.0935 14.256 37.0512 14.5088 36.1029 15.0261L37.0606 16.7819C37.6963 16.4352 38.406 16.256 39.2098 16.256V14.256ZM36.0915 15.0324C35.1609 15.5559 34.4213 16.2993 33.8791 17.241L35.6124 18.239C35.9822 17.5967 36.4667 17.1161 37.072 16.7756L36.0915 15.0324ZM33.8859 17.2295C33.3268 18.1711 33.0618 19.2399 33.0618 20.404H35.0618C35.0618 19.5521 35.2527 18.8449 35.6056 18.2505L33.8859 17.2295ZM55.9014 27.46L55.4317 28.3429L55.4394 28.3469L55.9014 27.46ZM53.2014 24.832L52.3255 25.3146L52.3314 25.3253L52.3376 25.3359L53.2014 24.832ZM53.2734 16.264L54.1384 16.7657L54.1427 16.7583L53.2734 16.264ZM56.0454 13.456L55.5628 12.5801L55.5551 12.5844L56.0454 13.456ZM63.4254 13.456L62.8659 14.2848L62.8731 14.2897L62.8804 14.2944L63.4254 13.456ZM65.6214 15.688L66.5577 16.0391L66.7245 15.5944L66.4852 15.1841L65.6214 15.688ZM65.4054 16.264L64.4106 16.1623L66.3417 16.6151L65.4054 16.264ZM65.7294 13.096V12.096H64.8264L64.7346 12.9943L65.7294 13.096ZM68.8254 13.096H69.8254V12.096H68.8254V13.096ZM68.8254 28V29H69.8254V28H68.8254ZM65.4774 28H64.4774V29H65.4774V28ZM65.4774 24.112L66.4005 23.7274L64.4774 24.112H65.4774ZM65.8374 24.976L66.7659 25.3474L66.9175 24.9683L66.7605 24.5914L65.8374 24.976ZM65.1894 25.912L64.4368 25.2535L64.4337 25.2571L65.1894 25.912ZM63.8934 27.028L63.3223 26.2071L63.3137 26.2131L63.3052 26.2193L63.8934 27.028ZM62.0574 28L62.3834 28.9454L62.3978 28.9404L62.412 28.935L62.0574 28ZM62.8854 25.12L62.4643 24.213L62.8854 25.12ZM64.5414 23.824L63.7573 23.2033L63.7539 23.2077L64.5414 23.824ZM65.4774 21.772L66.4556 21.9795L66.4774 21.8769V21.772H65.4774ZM65.4774 18.856H66.4774V18.725L66.4436 18.5983L65.4774 18.856ZM64.4694 16.984L63.7148 17.6402L63.722 17.6485L63.7294 17.6567L64.4694 16.984ZM62.7414 15.724L62.3203 16.631L62.3338 16.6373L62.3475 16.6431L62.7414 15.724ZM58.0614 15.904L57.5592 15.0392H57.5592L58.0614 15.904ZM56.2614 17.704L55.4015 17.1935L55.3955 17.2035L55.3898 17.2137L56.2614 17.704ZM56.2974 23.032L57.164 22.533L56.2974 23.032ZM59.7174 27.36C58.4744 27.36 57.3625 27.0935 56.3633 26.5731L55.4394 28.3469C56.7442 29.0265 58.1764 29.36 59.7174 29.36V27.36ZM56.371 26.5771C55.4144 26.0683 54.6478 25.327 54.0652 24.3281L52.3376 25.3359C53.0989 26.641 54.1323 27.6517 55.4318 28.3429L56.371 26.5771ZM54.0772 24.3494C53.5287 23.3539 53.2294 22.1009 53.2294 20.548H51.2294C51.2294 22.3551 51.5781 23.9581 52.3255 25.3146L54.0772 24.3494ZM53.2294 20.548C53.2294 19.034 53.5465 17.7862 54.1384 16.7657L52.4083 15.7623C51.6082 17.1418 51.2294 18.75 51.2294 20.548H53.2294ZM54.1427 16.7583C54.755 15.6814 55.5523 14.8807 56.5356 14.3276L55.5551 12.5844C54.2345 13.3273 53.1837 14.3986 52.4041 15.7697L54.1427 16.7583ZM56.528 14.3318C57.5506 13.7683 58.6677 13.484 59.8974 13.484V11.484C58.343 11.484 56.8921 11.8477 55.5628 12.5802L56.528 14.3318ZM59.8974 13.484C61.1309 13.484 62.1021 13.7693 62.8659 14.2848L63.9848 12.6272C62.8287 11.8467 61.4479 11.484 59.8974 11.484V13.484ZM62.8804 14.2944C63.7285 14.8457 64.343 15.4811 64.7576 16.1919L66.4852 15.1841C65.8918 14.1669 65.0423 13.3143 63.9704 12.6176L62.8804 14.2944ZM64.685 15.3369L64.469 15.9129L66.3417 16.6151L66.5577 16.0391L64.685 15.3369ZM66.4002 16.3657L66.7242 13.1977L64.7346 12.9943L64.4106 16.1623L66.4002 16.3657ZM65.7294 14.096H68.8254V12.096H65.7294V14.096ZM67.8254 13.096V28H69.8254V13.096H67.8254ZM68.8254 27H65.4774V29H68.8254V27ZM66.4774 28V24.112H64.4774V28H66.4774ZM64.5543 24.4966L64.9143 25.3606L66.7605 24.5914L66.4005 23.7274L64.5543 24.4966ZM64.9089 24.6046C64.8783 24.681 64.7562 24.8884 64.4368 25.2535L65.942 26.5705C66.2945 26.1676 66.6044 25.751 66.7659 25.3474L64.9089 24.6046ZM64.4337 25.2571C64.1933 25.5345 63.8317 25.8528 63.3223 26.2071L64.4644 27.8489C65.0591 27.4352 65.5615 27.0095 65.9451 26.5669L64.4337 25.2571ZM63.3052 26.2193C62.8583 26.5443 62.327 26.8282 61.7027 27.065L62.412 28.935C63.1797 28.6438 63.8724 28.2797 64.4815 27.8367L63.3052 26.2193ZM61.7314 27.0546C61.1567 27.2528 60.4892 27.36 59.7174 27.36V29.36C60.6735 29.36 61.5661 29.2272 62.3834 28.9454L61.7314 27.0546ZM60.6174 26.588C61.5833 26.588 62.4859 26.408 63.3065 26.027L62.4643 24.213C61.9408 24.456 61.3314 24.588 60.6174 24.588V26.588ZM63.3065 26.027C64.1135 25.6523 64.7939 25.1239 65.3289 24.4403L63.7539 23.2077C63.4249 23.6281 63.0013 23.9637 62.4643 24.213L63.3065 26.027ZM65.3254 24.4447C65.8866 23.7359 66.2589 22.9067 66.4556 21.9795L64.4991 21.5645C64.3598 22.2213 64.1082 22.7601 63.7573 23.2033L65.3254 24.4447ZM66.4774 21.772V18.856H64.4774V21.772H66.4774ZM66.4436 18.5983C66.2123 17.731 65.8016 16.9629 65.2093 16.3113L63.7294 17.6567C64.0971 18.0611 64.3584 18.541 64.5111 19.1137L66.4436 18.5983ZM65.224 16.3278C64.6452 15.6622 63.9459 15.1522 63.1353 14.8049L62.3475 16.6431C62.8809 16.8718 63.3336 17.2018 63.7148 17.6402L65.224 16.3278ZM63.1625 14.817C62.3457 14.4378 61.4559 14.256 60.5094 14.256V16.256C61.1948 16.256 61.7931 16.3862 62.3203 16.631L63.1625 14.817ZM60.5094 14.256C59.4509 14.256 58.4608 14.5157 57.5592 15.0392L58.5635 16.7688C59.1499 16.4283 59.7918 16.256 60.5094 16.256V14.256ZM57.5592 15.0392C56.662 15.5602 55.9411 16.2846 55.4015 17.1935L57.1212 18.2145C57.4936 17.5874 57.9728 17.1118 58.5635 16.7688L57.5592 15.0392ZM55.3898 17.2137C54.8602 18.1552 54.6134 19.2298 54.6134 20.404H56.6134C56.6134 19.5142 56.7985 18.7888 57.1329 18.1943L55.3898 17.2137ZM54.6134 20.404C54.6134 21.5299 54.8829 22.5794 55.4308 23.531L57.164 22.533C56.7999 21.9006 56.6134 21.1981 56.6134 20.404H54.6134ZM55.4308 23.531C55.9704 24.4682 56.7036 25.218 57.6228 25.7639L58.6439 24.0441C58.0272 23.678 57.5364 23.1798 57.164 22.533L55.4308 23.531ZM57.6228 25.7639C58.5444 26.311 59.5486 26.588 60.6174 26.588V24.588C59.9102 24.588 59.2584 24.409 58.6439 24.0441L57.6228 25.7639ZM73.6111 18.784V17.784H72.6111V18.784H73.6111ZM80.3431 18.784H81.3431V17.784H80.3431V18.784ZM80.3431 21.736V22.736H81.3431V21.736H80.3431ZM73.6111 21.736H72.6111V22.736H73.6111V21.736ZM73.6111 19.784H80.3431V17.784H73.6111V19.784ZM79.3431 18.784V21.736H81.3431V18.784H79.3431ZM80.3431 20.736H73.6111V22.736H80.3431V20.736ZM74.6111 21.736V18.784H72.6111V21.736H74.6111ZM88.5407 13.096L89.5376 13.017L89.4646 12.096H88.5407V13.096ZM88.8287 16.732L87.8586 16.9745L89.8256 16.653L88.8287 16.732ZM88.6847 16.156L87.7676 15.7573L87.6322 16.0689L87.7146 16.3985L88.6847 16.156ZM91.0247 13.528L91.5392 14.3855L91.5462 14.3813L91.553 14.3771L91.0247 13.528ZM98.2247 13.78L97.5375 14.5065L97.5476 14.516L97.5579 14.5252L98.2247 13.78ZM99.6287 16.984H100.629V16.9749L100.629 16.9658L99.6287 16.984ZM99.6287 28V29H100.629V28H99.6287ZM96.2447 28H95.2447V29H96.2447V28ZM96.2447 18.172H97.2447V18.1573L97.2443 18.1426L96.2447 18.172ZM95.5247 16.192L94.7508 16.8252L94.7665 16.8445L94.7832 16.8629L95.5247 16.192ZM89.4767 18.1L88.5772 17.6631L88.5721 17.6736L88.5672 17.6842L89.4767 18.1ZM88.9007 28V29H89.9007V28H88.9007ZM85.5527 28H84.5527V29H85.5527V28ZM85.5527 13.096V12.096H84.5527V13.096H85.5527ZM87.5438 13.175L87.8318 16.811L89.8256 16.653L89.5376 13.017L87.5438 13.175ZM89.7989 16.4895L89.6549 15.9135L87.7146 16.3985L87.8586 16.9745L89.7989 16.4895ZM89.6018 16.5547C89.9947 15.6511 90.6291 14.9315 91.5392 14.3855L90.5102 12.6705C89.2603 13.4205 88.3347 14.4529 87.7676 15.7573L89.6018 16.5547ZM91.553 14.3771C92.4569 13.8146 93.5177 13.52 94.7687 13.52V11.52C93.1878 11.52 91.7525 11.8974 90.4964 12.6789L91.553 14.3771ZM94.7687 13.52C95.9726 13.52 96.8645 13.8699 97.5375 14.5065L98.9119 13.0535C97.8089 12.0101 96.3969 11.52 94.7687 11.52V13.52ZM97.5579 14.5252C98.245 15.14 98.6095 15.9358 98.6289 17.0022L100.629 16.9658C100.6 15.3922 100.028 14.052 98.8915 13.0348L97.5579 14.5252ZM98.6287 16.984V28H100.629V16.984H98.6287ZM99.6287 27H96.2447V29H99.6287V27ZM97.2447 28V18.172H95.2447V28H97.2447ZM97.2443 18.1426C97.2148 17.1389 96.9124 16.2353 96.2663 15.5211L94.7832 16.8629C95.049 17.1567 95.2267 17.5731 95.2452 18.2014L97.2443 18.1426ZM96.2987 15.5588C95.6129 14.7206 94.5907 14.4 93.4727 14.4V16.4C94.2267 16.4 94.5725 16.6074 94.7508 16.8252L96.2987 15.5588ZM93.4727 14.4C92.4107 14.4 91.4318 14.699 90.565 15.2968L91.7005 16.9432C92.2257 16.581 92.8068 16.4 93.4727 16.4V14.4ZM90.565 15.2968C89.7124 15.8848 89.0525 16.6845 88.5772 17.6631L90.3762 18.5369C90.7169 17.8355 91.161 17.3152 91.7005 16.9432L90.565 15.2968ZM88.5672 17.6842C88.1131 18.6777 87.9007 19.7961 87.9007 21.016H89.9007C89.9007 20.0279 90.0723 19.2023 90.3862 18.5158L88.5672 17.6842ZM87.9007 21.016V28H89.9007V21.016H87.9007ZM88.9007 27H85.5527V29H88.9007V27ZM86.5527 28V13.096H84.5527V28H86.5527ZM85.5527 14.096H88.5407V12.096H85.5527V14.096ZM105.199 16.372L104.342 15.8575L104.338 15.8639L104.334 15.8703L105.199 16.372ZM108.151 13.528L108.638 14.4014L108.151 13.528ZM116.683 13.528L116.189 14.3973H116.189L116.683 13.528ZM119.527 16.372L120.4 15.8834L119.527 16.372ZM119.527 24.472L120.4 24.9606L120.404 24.9533L119.527 24.472ZM116.647 27.316L116.16 26.4426L116.153 26.4467L116.647 27.316ZM108.115 27.388L107.634 28.2646L107.644 28.2702L107.654 28.2755L108.115 27.388ZM105.199 24.616L104.334 25.1177L104.34 25.128L104.346 25.1382L105.199 24.616ZM108.151 23.068L107.273 23.5469L107.28 23.5583L108.151 23.068ZM109.879 24.904L109.344 25.7488L109.35 25.7528L109.357 25.7566L109.879 24.904ZM114.811 24.904L114.289 24.0514L114.282 24.0552L114.276 24.0592L114.811 24.904ZM116.539 23.068L117.422 23.5372L117.428 23.526L116.539 23.068ZM116.539 17.848L115.65 18.306L115.656 18.3172L116.539 17.848ZM114.811 15.976L114.256 16.8081L114.272 16.8186L114.289 16.8286L114.811 15.976ZM109.843 15.976L109.301 15.1357L109.295 15.1398L109.288 15.1439L109.843 15.976ZM108.115 17.884L107.237 17.4051L107.232 17.4148L108.115 17.884ZM105.155 20.404C105.155 19.079 105.463 17.9102 106.064 16.8737L104.334 15.8703C103.543 17.2338 103.155 18.753 103.155 20.404H105.155ZM106.057 16.8865C106.685 15.8397 107.54 15.0141 108.638 14.4014L107.664 12.6546C106.267 13.4339 105.154 14.5043 104.342 15.8575L106.057 16.8865ZM108.638 14.4014C109.722 13.7972 110.967 13.484 112.399 13.484V11.484C110.664 11.484 109.077 11.8668 107.664 12.6546L108.638 14.4014ZM112.399 13.484C113.886 13.484 115.138 13.7997 116.189 14.3973L117.177 12.6587C115.78 11.8643 114.177 11.484 112.399 11.484V13.484ZM116.189 14.3973C117.258 15.0055 118.074 15.8235 118.655 16.8606L120.4 15.8834C119.636 14.5205 118.556 13.4425 117.177 12.6587L116.189 14.3973ZM118.655 16.8606C119.236 17.8992 119.535 19.0727 119.535 20.404H121.535C121.535 18.7593 121.162 17.2448 120.4 15.8834L118.655 16.8606ZM119.535 20.404C119.535 21.7351 119.236 22.9239 118.651 23.9907L120.404 24.9533C121.162 23.5721 121.535 22.0489 121.535 20.404H119.535ZM118.655 23.9834C118.077 25.0155 117.253 25.8331 116.16 26.4426L117.134 28.1894C118.537 27.4069 119.634 26.3285 120.4 24.9606L118.655 23.9834ZM116.153 26.4467C115.102 27.0443 113.85 27.36 112.363 27.36V29.36C114.141 29.36 115.744 28.9797 117.141 28.1853L116.153 26.4467ZM112.363 27.36C110.919 27.36 109.664 27.0657 108.576 26.5005L107.654 28.2755C109.062 29.0063 110.639 29.36 112.363 29.36V27.36ZM108.596 26.5114C107.523 25.9221 106.68 25.1194 106.052 24.0938L104.346 25.1382C105.158 26.4646 106.259 27.5099 107.634 28.2646L108.596 26.5114ZM106.064 24.1143C105.47 23.0895 105.155 21.8642 105.155 20.404H103.155C103.155 22.1598 103.536 23.7425 104.334 25.1177L106.064 24.1143ZM106.503 20.44C106.503 21.5563 106.756 22.5985 107.273 23.5469L109.029 22.5891C108.682 21.9535 108.503 21.2437 108.503 20.44H106.503ZM107.28 23.5583C107.79 24.4654 108.479 25.2012 109.344 25.7488L110.414 24.0592C109.839 23.6948 109.376 23.2066 109.023 22.5777L107.28 23.5583ZM109.357 25.7566C110.261 26.3108 111.258 26.588 112.327 26.588V24.588C111.62 24.588 110.986 24.4092 110.402 24.0514L109.357 25.7566ZM112.327 26.588C113.433 26.588 114.451 26.316 115.346 25.7488L114.276 24.0592C113.732 24.404 113.093 24.588 112.327 24.588V26.588ZM115.334 25.7566C116.229 25.2076 116.93 24.4634 117.422 23.5372L115.656 22.5988C115.332 23.2086 114.881 23.6884 114.289 24.0514L115.334 25.7566ZM117.428 23.526C117.915 22.5815 118.151 21.5467 118.151 20.44H116.151C116.151 21.2533 115.98 21.9705 115.65 22.61L117.428 23.526ZM118.151 20.44C118.151 19.3337 117.915 18.3059 117.422 17.3788L115.656 18.3172C115.98 18.9261 116.151 19.6263 116.151 20.44H118.151ZM117.428 17.39C116.938 16.4391 116.237 15.6771 115.334 15.1234L114.289 16.8286C114.873 17.1869 115.324 17.6729 115.65 18.306L117.428 17.39ZM115.366 15.1439C114.468 14.5454 113.444 14.256 112.327 14.256V16.256C113.083 16.256 113.714 16.4466 114.256 16.8081L115.366 15.1439ZM112.327 14.256C111.229 14.256 110.212 14.5482 109.301 15.1357L110.385 16.8163C110.963 16.4438 111.601 16.256 112.327 16.256V14.256ZM109.288 15.1439C108.428 15.7176 107.743 16.4772 107.237 17.4051L108.993 18.3629C109.351 17.7068 109.818 17.1944 110.398 16.8081L109.288 15.1439ZM107.232 17.4148C106.742 18.3382 106.503 19.3532 106.503 20.44H108.503C108.503 19.6548 108.673 18.9658 108.998 18.3532L107.232 17.4148ZM126.148 27.748L125.785 28.6796L125.798 28.6849L125.812 28.6897L126.148 27.748ZM123.7 26.056L122.89 25.4705L122.425 26.1141L122.946 26.7128L123.7 26.056ZM125.104 24.112L125.797 23.3912L124.968 22.5933L124.294 23.5265L125.104 24.112ZM127.012 25.48L126.579 26.381L126.598 26.3905L126.618 26.3991L127.012 25.48ZM130.324 25.732L130.607 26.6914L130.324 25.732ZM131.296 25.156L130.559 24.4803L130.556 24.4833L131.296 25.156ZM131.152 22.744L130.472 23.4768L130.484 23.4885L130.497 23.4997L131.152 22.744ZM129.82 21.988L129.479 22.9279L129.492 22.9325L129.82 21.988ZM128.128 21.448L127.812 22.3967L127.835 22.4044L127.859 22.411L128.128 21.448ZM125.32 19.756L126.064 19.087L125.32 19.756ZM124.924 14.932L124.062 14.4263L124.056 14.4359L124.924 14.932ZM126.688 13.24L126.209 12.362L126.198 12.3684L126.688 13.24ZM132.376 12.988L132.069 13.9394L132.081 13.9436L132.094 13.9474L132.376 12.988ZM134.68 14.212L135.523 14.7498L136.007 13.9924L135.305 13.4311L134.68 14.212ZM133.348 16.3L132.622 16.9877L133.503 17.9171L134.191 16.8378L133.348 16.3ZM131.8 15.292L131.462 16.2329L131.8 15.292ZM130.18 14.932L130.122 15.9303L130.13 15.9308L130.18 14.932ZM128.992 15.112L128.641 14.1757L128.631 14.1795L128.621 14.1835L128.992 15.112ZM128.236 17.884L128.917 17.1512V17.1512L128.236 17.884ZM129.532 18.64L129.191 19.5798L129.216 19.5889L129.241 19.5967L129.532 18.64ZM131.152 19.18L130.811 20.1198L130.842 20.1311L130.874 20.1403L131.152 19.18ZM133.132 20.044L132.602 20.892L133.132 20.044ZM134.5 21.376L133.657 21.9129L133.665 21.9262L133.674 21.9393L134.5 21.376ZM134.392 25.84L133.521 25.3497L133.516 25.3592L134.392 25.84ZM132.484 27.64L132.942 28.5293L132.951 28.5244L132.484 27.64ZM129.244 27.288C128.305 27.288 127.386 27.1282 126.485 26.8063L125.812 28.6897C126.926 29.0878 128.072 29.288 129.244 29.288V27.288ZM126.512 26.8164C125.667 26.4869 124.989 26.0129 124.454 25.3992L122.946 26.7128C123.708 27.5871 124.661 28.2411 125.785 28.6796L126.512 26.8164ZM124.511 26.6415L125.915 24.6975L124.294 23.5265L122.89 25.4705L124.511 26.6415ZM124.411 24.8328C125.097 25.4918 125.818 26.0148 126.579 26.381L127.446 24.579C126.911 24.3212 126.36 23.9322 125.797 23.3912L124.411 24.8328ZM126.618 26.3991C127.399 26.7337 128.193 26.912 128.992 26.912V24.912C128.496 24.912 127.97 24.8023 127.406 24.5609L126.618 26.3991ZM128.992 26.912C129.556 26.912 130.096 26.8415 130.607 26.6914L130.042 24.7726C129.737 24.8625 129.389 24.912 128.992 24.912V26.912ZM130.607 26.6914C131.156 26.5296 131.651 26.2525 132.036 25.8287L130.556 24.4833C130.462 24.5875 130.308 24.6944 130.042 24.7726L130.607 26.6914ZM132.033 25.8317C132.503 25.3194 132.692 24.6742 132.692 24.004H130.692C130.692 24.2938 130.618 24.4166 130.559 24.4803L132.033 25.8317ZM132.692 24.004C132.692 23.2213 132.412 22.5122 131.807 21.9883L130.497 23.4997C130.613 23.5998 130.692 23.7307 130.692 24.004H132.692ZM131.833 22.0112C131.372 21.583 130.797 21.2689 130.149 21.0435L129.492 22.9325C129.948 23.0911 130.261 23.281 130.472 23.4768L131.833 22.0112ZM130.162 21.0482C129.608 20.8467 129.02 20.6591 128.398 20.485L127.859 22.411C128.437 22.5729 128.977 22.7453 129.479 22.9278L130.162 21.0482ZM128.445 20.4993C127.332 20.1285 126.564 19.6427 126.064 19.087L124.577 20.425C125.373 21.3093 126.477 21.9515 127.812 22.3967L128.445 20.4993ZM126.064 19.087C125.592 18.5634 125.348 17.9306 125.348 17.128H123.348C123.348 18.3894 123.752 19.5086 124.577 20.425L126.064 19.087ZM125.348 17.128C125.348 16.5058 125.497 15.9454 125.793 15.4281L124.056 14.4359C123.584 15.2626 123.348 16.1662 123.348 17.128H125.348ZM125.787 15.4377C126.097 14.9084 126.55 14.465 127.179 14.1116L126.198 12.3684C125.29 12.879 124.567 13.5636 124.062 14.4263L125.787 15.4377ZM127.167 14.1179C127.777 13.7852 128.574 13.592 129.604 13.592V11.592C128.33 11.592 127.184 11.8308 126.209 12.3621L127.167 14.1179ZM129.604 13.592C130.552 13.592 131.37 13.7134 132.069 13.9394L132.684 12.0366C131.751 11.7346 130.72 11.592 129.604 11.592V13.592ZM132.094 13.9474C132.775 14.1477 133.429 14.4912 134.056 14.9929L135.305 13.4311C134.492 12.7808 133.609 12.3083 132.659 12.0286L132.094 13.9474ZM133.837 13.6742L132.505 15.7622L134.191 16.8378L135.523 14.7498L133.837 13.6742ZM134.074 15.6123C133.533 15.041 132.884 14.6192 132.139 14.3511L131.462 16.2329C131.917 16.3968 132.3 16.647 132.622 16.9877L134.074 15.6123ZM132.139 14.3511C131.475 14.1119 130.835 13.9635 130.23 13.9332L130.13 15.9308C130.486 15.9485 130.926 16.0401 131.462 16.2329L132.139 14.3511ZM130.239 13.9337C129.691 13.9015 129.156 13.9828 128.641 14.1757L129.343 16.0483C129.597 15.9532 129.854 15.9145 130.122 15.9303L130.239 13.9337ZM128.621 14.1835C128.133 14.3788 127.703 14.6658 127.352 15.0513L128.832 16.3967C128.962 16.2542 129.132 16.1332 129.364 16.0405L128.621 14.1835ZM127.352 15.0513C126.943 15.5012 126.732 16.0537 126.732 16.66H128.732C128.732 16.5463 128.761 16.4748 128.832 16.3967L127.352 15.0513ZM126.732 16.66C126.732 17.4114 126.995 18.0957 127.556 18.6168L128.917 17.1512C128.806 17.0483 128.732 16.9166 128.732 16.66H126.732ZM127.556 18.6168C128.009 19.0377 128.565 19.3521 129.191 19.5798L129.874 17.7002C129.444 17.5439 129.135 17.3543 128.917 17.1512L127.556 18.6168ZM129.241 19.5967C129.777 19.7596 130.3 19.934 130.811 20.1198L131.494 18.2402C130.949 18.042 130.392 17.8564 129.824 17.6833L129.241 19.5967ZM130.874 20.1403C131.541 20.3342 132.115 20.5871 132.602 20.892L133.662 19.196C132.998 18.7809 132.251 18.4578 131.431 18.2197L130.874 20.1403ZM132.602 20.892C133.063 21.1798 133.407 21.5211 133.657 21.9129L135.344 20.8391C134.921 20.1749 134.354 19.6282 133.662 19.196L132.602 20.892ZM133.674 21.9393C133.896 22.2653 134.04 22.7165 134.04 23.356H136.04C136.04 22.4115 135.824 21.5427 135.327 20.8127L133.674 21.9393ZM134.04 23.356C134.04 24.0737 133.868 24.7326 133.521 25.3497L135.264 26.3303C135.781 25.4114 136.04 24.4143 136.04 23.356H134.04ZM133.516 25.3592C133.215 25.9065 132.735 26.3769 132.018 26.7556L132.951 28.5244C133.961 27.9911 134.753 27.2615 135.269 26.3208L133.516 25.3592ZM132.027 26.7507C131.373 27.0869 130.465 27.288 129.244 27.288V29.288C130.664 29.288 131.915 29.0571 132.942 28.5293L132.027 26.7507ZM138.865 0.675998V-0.324002H137.865V0.675998H138.865ZM141.889 0.675998H142.889V-0.324002H141.889V0.675998ZM141.889 21.268V22.268H142.889V21.268H141.889ZM138.865 21.268H137.865V22.268H138.865V21.268ZM138.936 27.316L139.598 26.5662L138.936 27.316ZM138.936 24.58L139.598 25.3298L139.61 25.3192L139.622 25.3082L138.936 24.58ZM141.96 24.58L141.253 25.2871L141.275 25.3092L141.299 25.3298L141.96 24.58ZM141.96 27.316L141.299 26.5662L141.288 26.5761L141.277 26.5865L141.96 27.316ZM138.865 1.676H141.889V-0.324002H138.865V1.676ZM140.889 0.675998V21.268H142.889V0.675998H140.889ZM141.889 20.268H138.865V22.268H141.889V20.268ZM139.865 21.268V0.675998H137.865V21.268H139.865ZM140.484 26.856C140.066 26.856 139.797 26.7414 139.598 26.5662L138.275 28.0658C138.892 28.6106 139.655 28.856 140.484 28.856V26.856ZM139.598 26.5662C139.409 26.3991 139.324 26.2178 139.324 25.948H137.324C137.324 26.7822 137.648 27.5129 138.275 28.0658L139.598 26.5662ZM139.324 25.948C139.324 25.6782 139.409 25.4969 139.598 25.3298L138.275 23.8302C137.648 24.3831 137.324 25.1138 137.324 25.948H139.324ZM139.622 25.3082C139.823 25.1192 140.084 25.004 140.484 25.004V23.004C139.637 23.004 138.866 23.2728 138.251 23.8518L139.622 25.3082ZM140.484 25.004C140.85 25.004 141.077 25.1112 141.253 25.2871L142.668 23.8729C142.076 23.2808 141.319 23.004 140.484 23.004V25.004ZM141.299 25.3298C141.488 25.4969 141.572 25.6782 141.572 25.948H143.572C143.572 25.1138 143.249 24.3831 142.622 23.8302L141.299 25.3298ZM141.572 25.948C141.572 26.2178 141.488 26.3991 141.299 26.5662L142.622 28.0658C143.249 27.5129 143.572 26.7822 143.572 25.948H141.572ZM141.277 26.5865C141.104 26.7482 140.869 26.856 140.484 26.856V28.856C141.3 28.856 142.049 28.6038 142.644 28.0455L141.277 26.5865Z" fill="black" fill-opacity="0.2"/>
</svg>
