<svg width="63" height="53" viewBox="0 0 63 53" fill="none" xmlns="http://www.w3.org/2000/svg">
<g filter="url(#filter0_d_11_12)">
<path d="M40.6367 21.8444C35.5939 18.7053 30.7653 15.8194 25.8296 12.8063V30.8315C31.0235 27.5426 36.498 24.5307 40.6582 21.8444H40.6367Z" fill="white"/>
<path d="M26.7785 44.9416C16.3041 44.7169 12.7265 44.5148 10.5275 43.9871C9.03977 43.6365 7.74692 42.8579 6.79896 41.7287C6.0663 40.8741 5.48365 39.5702 5.03161 37.7612C4.64386 36.254 4.49284 35 4.27753 31.937C3.94794 25.024 3.86937 19.3722 4.27753 13.0571C4.61426 9.56971 4.77753 5.42979 7.01426 3.01453C8.07038 1.88416 9.29895 1.15673 10.6785 0.856016C12.8336 0.379384 22.0153 0.00259399 31.5204 0.00259399C41.004 0.00259399 50.2061 0.379384 52.3632 0.856016C54.0867 1.23281 55.703 2.36198 56.652 3.81803C58.6928 7.5574 58.7285 12.2072 58.9357 15.8444C59.0214 17.5774 59.0214 27.4179 58.9357 29.1509C58.6132 34.899 58.354 36.9327 57.6214 39.0413C57.1683 40.3725 56.7816 41.075 56.1122 41.8535C55.0624 43.0516 53.724 43.8485 52.2755 44.1381C43.2112 44.932 35.5142 45.1044 26.7785 44.9416ZM40.6591 21.8445C35.6163 18.7054 30.7877 15.7945 25.852 12.7813V30.8078C31.0459 27.5189 36.5214 24.5058 40.6806 21.8195L40.6591 21.8445Z" fill="#F49300"/>
</g>
<defs>
<filter id="filter0_d_11_12" x="0" y="0" width="63" height="53" filterUnits="userSpaceOnUse" color-interpolation-filters="sRGB">
<feFlood flood-opacity="0" result="BackgroundImageFix"/>
<feColorMatrix in="SourceAlpha" type="matrix" values="0 0 0 0 0 0 0 0 0 0 0 0 0 0 0 0 0 0 127 0" result="hardAlpha"/>
<feOffset dy="4"/>
<feGaussianBlur stdDeviation="2"/>
<feComposite in2="hardAlpha" operator="out"/>
<feColorMatrix type="matrix" values="0 0 0 0 0 0 0 0 0 0 0 0 0 0 0 0 0 0 0.25 0"/>
<feBlend mode="normal" in2="BackgroundImageFix" result="effect1_dropShadow_11_12"/>
<feBlend mode="normal" in="SourceGraphic" in2="effect1_dropShadow_11_12" result="shape"/>
</filter>
</defs>
</svg>
